<svg xmlns="http://www.w3.org/2000/svg" viewBox="0 0 960 540" role="img" aria-label="Accueil Horizon Farm">
  <defs><linearGradient id="g" x1="0" y1="0" x2="1" y2="1"><stop offset="0%" stop-color="#052e16"/><stop offset="100%" stop-color="#0a2818"/></linearGradient></defs>
  <rect width="960" height="540" fill="#f6faf6"/>
  <rect width="960" height="52" fill="url(#g)"/>
  <text x="24" y="33" fill="#dcfce7" font-family="system-ui,sans-serif" font-size="16" font-weight="700">Horizon Farm  Accueil</text>
  <text x="820" y="33" fill="#86efac" font-family="system-ui,sans-serif" font-size="12">Donnķes simulķes</text>
  <rect x="24" y="72" width="210" height="88" rx="12" fill="#fff" stroke="#eadcc2"/>
  <text x="40" y="98" fill="#15803d" font-size="11" font-weight="800">╔LEVAGE</text>
  <text x="40" y="132" fill="#2f2415" font-size="28" font-weight="700">4 300 tĻtes</text>
  <rect x="252" y="72" width="210" height="88" rx="12" fill="#fff" stroke="#eadcc2"/>
  <text x="268" y="98" fill="#15803d" font-size="11" font-weight="800">STOCK</text>
  <text x="268" y="132" fill="#2f2415" font-size="28" font-weight="700">47 produits</text>
  <text x="268" y="152" fill="#b45309" font-size="12">Ā Rupture aliment</text>
  <rect x="480" y="72" width="210" height="88" rx="12" fill="#fff" stroke="#eadcc2"/>
  <text x="496" y="98" fill="#15803d" font-size="11" font-weight="800">FINANCE</text>
  <text x="496" y="132" fill="#2f2415" font-size="28" font-weight="700">2,4 M FCFA</text>
  <rect x="708" y="72" width="228" height="88" rx="12" fill="#fff" stroke="#eadcc2"/>
  <text x="724" y="98" fill="#15803d" font-size="11" font-weight="800">CAPTEURS</text>
  <text x="724" y="132" fill="#2f2415" font-size="28" font-weight="700">28░C</text>
  <rect x="24" y="188" width="912" height="160" rx="14" fill="#fff" stroke="#eadcc2"/>
  <text x="40" y="220" fill="#2f2415" font-size="15" font-weight="700">Objectifs & projections</text>
  <rect x="40" y="236" width="280" height="10" rx="5" fill="#e5e7eb"/><rect x="40" y="236" width="196" height="10" rx="5" fill="#22c55e"/>
  <text x="40" y="270" fill="#8a7456" font-size="13">CA mois : 4,8 M Ę objectif 5,2 M</text>
  <text x="40" y="300" fill="#15803d" font-size="13" font-weight="600">Conseil : sķcuriser aliment avant vendredi</text>
  <rect x="24" y="368" width="912" height="148" rx="14" fill="#fff" stroke="#eadcc2"/>
  <text x="40" y="400" fill="#2f2415" font-size="15" font-weight="700">Journal terrain du jour</text>
  <text x="40" y="430" fill="#8a7456" font-size="13">Rķception aliment Ę Vente Sufs Ę Alerte ventilation</text>
</svg>
